<svg width="14" height="15" viewBox="0 0 14 15" fill="none" xmlns="http://www.w3.org/2000/svg">
<g clip-path="url(#clip0)">
<path fill-rule="evenodd" clip-rule="evenodd" d="M7.21547 0.589289L9.04125 2.41507C9.16026 2.53407 9.16026 2.72642 9.04125 2.84542C8.98191 2.90477 8.90399 2.9346 8.82608 2.9346C8.74817 2.9346 8.67025 2.90477 8.61091 2.84542L7.30434 1.53886V5.67373C7.30434 5.84173 7.1683 5.97808 6.99999 5.97808C6.83169 5.97808 6.69564 5.84173 6.69564 5.67373V1.53886L5.38908 2.84542C5.27008 2.96442 5.07773 2.96442 4.95873 2.84542C4.83973 2.72642 4.83973 2.53407 4.95873 2.41507L6.78451 0.589289C6.81282 0.560984 6.84629 0.538767 6.88373 0.523245C6.95799 0.492506 7.04199 0.492506 7.11625 0.523245C7.15369 0.538767 7.18747 0.560984 7.21547 0.589289ZM11.5497 13.8911H13.6957C13.864 13.8911 14 14.0275 14 14.1955C14 14.3635 13.864 14.4998 13.6957 14.4998H11.2612H11.2606H11.26H2.73974H2.73913H2.73852H0.304348C0.136043 14.4998 0 14.3635 0 14.1955C0 14.0275 0.136043 13.8911 0.304348 13.8911H2.4503C2.51878 12.8615 2.92783 11.9259 3.56848 11.1943L1.91526 9.54107C1.79626 9.42207 1.79626 9.22972 1.91526 9.11072C2.03426 8.99172 2.22661 8.99172 2.34561 9.11072L3.99883 10.7639C4.73048 10.1233 5.66604 9.71424 6.69565 9.64577V7.49981C6.69565 7.33181 6.8317 7.19546 7 7.19546C7.1683 7.19546 7.30435 7.33181 7.30435 7.49981V9.64577C8.33396 9.71424 9.26952 10.1233 10.0012 10.7639L11.6544 9.11072C11.7734 8.99172 11.9657 8.99172 12.0847 9.11072C12.2037 9.22972 12.2037 9.42207 12.0847 9.54107L10.4315 11.1943C11.0722 11.9259 11.4812 12.8615 11.5497 13.8911ZM7 10.2389C4.9213 10.2389 3.21543 11.8514 3.059 13.8911H10.941C10.7846 11.8514 9.0787 10.2389 7 10.2389Z" fill="#459AFE"/>
</g>
<defs>
<clipPath id="clip0">
<rect width="14" height="14" fill="white" transform="translate(0 0.5)"/>
</clipPath>
</defs>
</svg>
