<svg width="20" height="15" viewBox="0 0 20 15" fill="none" xmlns="http://www.w3.org/2000/svg">
<path fill-rule="evenodd" clip-rule="evenodd" d="M0 1C0 0.44772 0.44772 0 1 0H19C19.5523 0 20 0.44772 20 1C20 1.55228 19.5523 2 19 2H1C0.44772 2 0 1.55228 0 1ZM0 7.0322C0 6.4799 0.44772 6.0322 1 6.0322H19C19.5523 6.0322 20 6.4799 20 7.0322C20 7.5845 19.5523 8.0322 19 8.0322H1C0.44772 8.0322 0 7.5845 0 7.0322ZM0 13.0645C0 12.5122 0.44772 12.0645 1 12.0645H19C19.5523 12.0645 20 12.5122 20 13.0645C20 13.6167 19.5523 14.0645 19 14.0645H1C0.44772 14.0645 0 13.6167 0 13.0645Z" fill="black"/>
</svg>
