<svg width="14" height="15" viewBox="0 0 14 15" fill="none" xmlns="http://www.w3.org/2000/svg">
<path d="M11.2609 2.32609C9.75039 2.32609 8.52174 3.55504 8.52174 5.06522C8.52174 5.23322 8.65778 5.36957 8.82609 5.36957C8.99439 5.36957 9.13043 5.23322 9.13043 5.06522C9.13043 3.89044 10.0864 2.93478 11.2609 2.93478C12.4353 2.93478 13.3913 3.89044 13.3913 5.06522C13.3913 6.24 12.4353 7.19565 11.2609 7.19565H0.304348C0.136348 7.19565 0 7.332 0 7.5C0 7.668 0.136348 7.80435 0.304348 7.80435H11.2609C12.7713 7.80435 14 6.57539 14 5.06522C14 3.55504 12.7713 2.32609 11.2609 2.32609Z" fill="#459AFE"/>
<path d="M5.47826 1.71739C4.30348 1.71739 3.34783 2.67304 3.34783 3.84783C3.34783 4.01583 3.48417 4.15217 3.65217 4.15217C3.82017 4.15217 3.95652 4.01583 3.95652 3.84783C3.95652 3.00874 4.63917 2.32609 5.47826 2.32609C6.31735 2.32609 7 3.00874 7 3.84783C7 4.68691 6.31735 5.36957 5.47826 5.36957H0.304348C0.136348 5.36957 0 5.50591 0 5.67391C0 5.84191 0.136348 5.97826 0.304348 5.97826H5.47826C6.65304 5.97826 7.6087 5.02261 7.6087 3.84783C7.6087 2.67304 6.65304 1.71739 5.47826 1.71739Z" fill="#459AFE"/>
<path d="M10.6522 9.02174H0.304348C0.136348 9.02174 0 9.15809 0 9.32609C0 9.49409 0.136348 9.63044 0.304348 9.63044H10.6522C11.4913 9.63044 12.1739 10.3131 12.1739 11.1522C12.1739 11.9913 11.4913 12.6739 10.6522 12.6739C9.81309 12.6739 9.13044 11.9913 9.13044 11.1522C9.13044 10.9842 8.99439 10.8478 8.82609 10.8478C8.65778 10.8478 8.52174 10.9842 8.52174 11.1522C8.52174 12.327 9.4777 13.2826 10.6522 13.2826C11.8267 13.2826 12.7826 12.327 12.7826 11.1522C12.7826 9.9774 11.8267 9.02174 10.6522 9.02174Z" fill="#459AFE"/>
</svg>
