<svg width="16" height="16" viewBox="0 0 16 16" fill="none" xmlns="http://www.w3.org/2000/svg">
<path d="M5.56522 8.76765V1.73913C5.56522 0.780174 4.78504 0 3.82609 0C2.86713 0 2.08696 0.780174 2.08696 1.73913V8.76765C0.811826 9.41774 0 10.7304 0 12.1739C0 14.2835 1.71652 16 3.82609 16C5.93565 16 7.65217 14.2835 7.65217 12.1739C7.65217 10.7304 6.84035 9.41774 5.56522 8.76765ZM2.78261 1.73913C2.78261 1.16383 3.25078 0.695652 3.82609 0.695652C4.40139 0.695652 4.86957 1.16383 4.86957 1.73913V2.78261H2.78261V1.73913ZM3.82609 15.3043C2.09983 15.3043 0.695652 13.8998 0.695652 12.1739C0.695652 10.9297 1.4327 9.80417 2.57357 9.30644C2.70087 9.25113 2.78261 9.12591 2.78261 8.98783V3.47826H4.86957V8.98783C4.86957 9.12591 4.9513 9.25113 5.07861 9.30678C6.21948 9.80452 6.95652 10.9297 6.95652 12.1739C6.95652 13.8998 5.55235 15.3043 3.82609 15.3043Z" fill="#459AFE"/>
<path d="M3.82611 10.4348C2.86715 10.4348 2.08698 11.215 2.08698 12.1739C2.08698 13.1329 2.86715 13.913 3.82611 13.913C4.78506 13.913 5.56524 13.1329 5.56524 12.1739C5.56524 11.215 4.78506 10.4348 3.82611 10.4348ZM3.82611 13.2174C3.2508 13.2174 2.78263 12.7492 2.78263 12.1739C2.78263 11.5986 3.2508 11.1304 3.82611 11.1304C4.40141 11.1304 4.86958 11.5986 4.86958 12.1739C4.86958 12.7492 4.40141 13.2174 3.82611 13.2174Z" fill="#459AFE"/>
<path d="M12.1739 4.17391C10.0644 4.17391 8.34784 5.89043 8.34784 8C8.34784 10.1096 10.0644 11.8261 12.1739 11.8261C14.2835 11.8261 16 10.1096 16 8C16 5.89043 14.2835 4.17391 12.1739 4.17391ZM12.1739 11.1304C10.4477 11.1304 9.04349 9.72591 9.04349 8C9.04349 6.27409 10.4477 4.86956 12.1739 4.86956C13.9002 4.86956 15.3044 6.27409 15.3044 8C15.3044 9.72591 13.9002 11.1304 12.1739 11.1304Z" fill="#459AFE"/>
<path d="M13.5652 7.65217H12.5217V6.60869C12.5217 6.41669 12.3663 6.26086 12.1739 6.26086C11.9816 6.26086 11.8261 6.41669 11.8261 6.60869V7.65217H10.7826C10.5903 7.65217 10.4348 7.808 10.4348 8C10.4348 8.192 10.5903 8.34782 10.7826 8.34782H11.8261V9.3913C11.8261 9.5833 11.9816 9.73913 12.1739 9.73913C12.3663 9.73913 12.5217 9.5833 12.5217 9.3913V8.34782H13.5652C13.7576 8.34782 13.9131 8.192 13.9131 8C13.9131 7.808 13.7576 7.65217 13.5652 7.65217Z" fill="#459AFE"/>
</svg>
