<svg width="14" height="15" viewBox="0 0 14 15" fill="none" xmlns="http://www.w3.org/2000/svg">
<path d="M11.4709 4.77158C11.0458 2.66706 9.17041 1.10884 6.99985 1.10884C4.82898 1.10884 2.95363 2.66706 2.52877 4.77158C1.11663 4.87962 0 6.06077 0 7.5C0 9.01014 1.22893 10.2391 2.73907 10.2391H3.34775C3.51575 10.2391 3.65209 10.1027 3.65209 9.93473C3.65209 9.76674 3.51575 9.63039 3.34775 9.63039H2.73907C1.56431 9.63039 0.608682 8.67476 0.608682 7.5C0.608682 6.32525 1.56431 5.36961 2.72385 5.36687C2.7272 5.36748 2.73085 5.36748 2.73451 5.36779C2.73603 5.36809 2.73724 5.36901 2.73877 5.36931C2.7412 5.36961 2.74333 5.3687 2.74546 5.369C2.75764 5.37053 2.76951 5.37266 2.78168 5.37266C2.94024 5.37266 3.10337 5.39335 3.2668 5.43444C3.27867 5.43961 3.29115 5.44387 3.30393 5.44722C3.83957 5.5933 4.30643 5.95364 4.5846 6.43511C4.66829 6.58059 4.85455 6.6305 5.00033 6.5462C5.1458 6.4622 5.19571 6.27594 5.11141 6.13047C4.76111 5.52422 4.1783 5.06771 3.50723 4.87232C3.49323 4.86593 3.47862 4.86076 3.4634 4.8568C3.35688 4.82819 3.25036 4.80658 3.14384 4.79137C3.55044 3.01797 5.1528 1.71752 6.99985 1.71752C8.84659 1.71752 10.4489 3.01797 10.8559 4.79106C10.7493 4.80658 10.6425 4.82789 10.5363 4.85649C10.5214 4.86045 10.5068 4.86562 10.4931 4.87171C9.8217 5.0671 9.23858 5.52391 8.88829 6.13016C8.80429 6.27594 8.85389 6.46189 8.99937 6.54589C9.14485 6.63019 9.3311 6.58028 9.4151 6.43481C9.69327 5.95334 10.1601 5.5933 10.6958 5.44692C10.7086 5.44326 10.7207 5.43931 10.7326 5.43413C10.8963 5.39305 11.0595 5.37235 11.2183 5.37235C11.2384 5.37266 11.2415 5.37327 11.2609 5.36931C12.4357 5.36931 13.3913 6.32494 13.3913 7.4997C13.3913 8.67446 12.4357 9.63009 11.2609 9.63009H10.6522C10.4843 9.63009 10.3479 9.76643 10.3479 9.93443C10.3479 10.1024 10.4843 10.2388 10.6522 10.2388H11.2609C12.7711 10.2388 14 9.00984 14 7.4997C13.9997 6.06077 12.8831 4.87962 11.4709 4.77158Z" fill="#459AFE"/>
<path d="M6.99984 8.41304C6.83184 8.41304 6.6955 8.54938 6.6955 8.71738V9.93473C6.6955 10.1027 6.83184 10.2391 6.99984 10.2391C7.16783 10.2391 7.30418 10.1027 7.30418 9.93473V8.71738C7.30418 8.54938 7.16783 8.41304 6.99984 8.41304Z" fill="#459AFE"/>
<path d="M6.99984 11.4564C6.83184 11.4564 6.6955 11.5928 6.6955 11.7608V12.9781C6.6955 13.1461 6.83184 13.2825 6.99984 13.2825C7.16783 13.2825 7.30418 13.1461 7.30418 12.9781V11.7608C7.30418 11.5928 7.16783 11.4564 6.99984 11.4564Z" fill="#459AFE"/>
<path d="M5.17379 9.02171C5.00579 9.02171 4.86945 9.15805 4.86945 9.32605V10.5434C4.86945 10.7114 5.00579 10.8478 5.17379 10.8478C5.34178 10.8478 5.47813 10.7114 5.47813 10.5434V9.32605C5.47813 9.15805 5.34178 9.02171 5.17379 9.02171Z" fill="#459AFE"/>
<path d="M8.82589 9.02171C8.65789 9.02171 8.52155 9.15805 8.52155 9.32605V10.5434C8.52155 10.7114 8.65789 10.8478 8.82589 10.8478C8.99389 10.8478 9.13024 10.7114 9.13024 10.5434V9.32605C9.13024 9.15805 8.99389 9.02171 8.82589 9.02171Z" fill="#459AFE"/>
<path d="M5.17379 12.0651C5.00579 12.0651 4.86945 12.2015 4.86945 12.3695V13.5868C4.86945 13.7548 5.00579 13.8912 5.17379 13.8912C5.34178 13.8912 5.47813 13.7548 5.47813 13.5868V12.3695C5.47813 12.2015 5.34178 12.0651 5.17379 12.0651Z" fill="#459AFE"/>
<path d="M8.82589 12.0651C8.65789 12.0651 8.52155 12.2015 8.52155 12.3695V13.5868C8.52155 13.7548 8.65789 13.8912 8.82589 13.8912C8.99389 13.8912 9.13024 13.7548 9.13024 13.5868V12.3695C9.13024 12.2015 8.99389 12.0651 8.82589 12.0651Z" fill="#459AFE"/>
</svg>
