<svg width="55" height="54" viewBox="0 0 55 54" fill="none" xmlns="http://www.w3.org/2000/svg">
<path fill-rule="evenodd" clip-rule="evenodd" d="M26 1.5C26 0.671573 26.6716 0 27.5 0C28.3284 0 29 0.671573 29 1.5V5.5C29 6.32843 28.3284 7 27.5 7C26.6716 7 26 6.32843 26 5.5V1.5ZM27.5 38C33.8513 38 39 32.8513 39 26.5C39 20.1487 33.8513 15 27.5 15C21.1487 15 16 20.1487 16 26.5C16 32.8513 21.1487 38 27.5 38ZM27.5 41C35.5081 41 42 34.5081 42 26.5C42 18.4919 35.5081 12 27.5 12C19.4919 12 13 18.4919 13 26.5C13 34.5081 19.4919 41 27.5 41ZM27.5 47C26.6716 47 26 47.6716 26 48.5V52.5C26 53.3284 26.6716 54 27.5 54C28.3284 54 29 53.3284 29 52.5V48.5C29 47.6716 28.3284 47 27.5 47ZM8.06066 9.182C7.47487 8.59621 7.47487 7.64646 8.06066 7.06068C8.64645 6.47489 9.59619 6.47489 10.182 7.06068L13.0104 9.8891C13.5962 10.4749 13.5962 11.4246 13.0104 12.0104C12.4246 12.5962 11.4749 12.5962 10.8891 12.0104L8.06066 9.182ZM47.0104 7.06068C47.5962 7.64646 47.5962 8.59621 47.0104 9.182L44.182 12.0104C43.5962 12.5962 42.6464 12.5962 42.0606 12.0104C41.4748 11.4246 41.4748 10.4749 42.0606 9.8891L44.8891 7.06068C45.4748 6.47489 46.4246 6.47489 47.0104 7.06068ZM1.5 28C0.671573 28 0 27.3284 0 26.5C0 25.6716 0.671573 25 1.5 25H5.5C6.32843 25 7 25.6716 7 26.5C7 27.3284 6.32843 28 5.5 28H1.5ZM48 26.5C48 27.3284 48.6716 28 49.5 28H53.5C54.3284 28 55 27.3284 55 26.5C55 25.6716 54.3284 25 53.5 25H49.5C48.6716 25 48 25.6716 48 26.5ZM10.182 46.0104C9.59621 46.5962 8.64646 46.5962 8.06068 46.0104C7.47489 45.4246 7.47489 44.4748 8.06068 43.8891L10.8891 41.0606C11.4749 40.4748 12.4246 40.4748 13.0104 41.0606C13.5962 41.6464 13.5962 42.5962 13.0104 43.182L10.182 46.0104ZM47.0104 46.0104C46.4246 46.5962 45.4748 46.5962 44.889 46.0104L42.0606 43.182C41.4748 42.5962 41.4748 41.6464 42.0606 41.0606C42.6464 40.4748 43.5962 40.4748 44.1819 41.0606L47.0104 43.8891C47.5962 44.4748 47.5962 45.4246 47.0104 46.0104Z" fill="#FEAE24"/>
</svg>
