<svg width="14" height="15" viewBox="0 0 14 15" fill="none" xmlns="http://www.w3.org/2000/svg">
<g clip-path="url(#clip0)">
<path d="M7 0.5C6.832 0.5 6.69565 0.636348 6.69565 0.804348V2.63043C6.69565 2.79843 6.83169 2.93478 7 2.93478C7.168 2.93478 7.30434 2.79843 7.30434 2.63043V0.804348C7.30434 0.636348 7.168 0.5 7 0.5Z" fill="#459AFE"/>
<path d="M7 12.0651C6.832 12.0651 6.69565 12.2015 6.69565 12.3695V14.1957C6.69565 14.3637 6.832 14.5 7 14.5C7.168 14.5 7.30434 14.3637 7.30434 14.1957V12.3695C7.30434 12.2015 7.168 12.0651 7 12.0651Z" fill="#459AFE"/>
<path d="M13.6957 7.19558H11.8695C11.7012 7.19558 11.5651 7.33196 11.5651 7.49998C11.5651 7.66801 11.7015 7.80439 11.8695 7.80439H13.6957C13.8637 7.80439 14 7.66801 14 7.49998C14 7.33196 13.8637 7.19558 13.6957 7.19558Z" fill="#459AFE"/>
<path d="M2.13043 7.19558H0.304348C0.136348 7.19558 0 7.33196 0 7.49998C0 7.66801 0.136043 7.80439 0.304348 7.80439H2.13043C2.29843 7.80439 2.43478 7.66801 2.43478 7.49998C2.43478 7.33196 2.29843 7.19558 2.13043 7.19558Z" fill="#459AFE"/>
<path d="M12.0847 12.1547L10.563 10.6329C10.444 10.5139 10.2516 10.5139 10.1326 10.6329C10.0136 10.7519 10.0136 10.9443 10.1326 11.0633L11.6544 12.585C11.7137 12.6444 11.7916 12.6742 11.8696 12.6742C11.9475 12.6742 12.0254 12.6444 12.0847 12.585C12.2037 12.466 12.2037 12.2737 12.0847 12.1547Z" fill="#459AFE"/>
<path d="M3.86735 3.93705L2.34559 2.4153C2.22659 2.29629 2.03424 2.29629 1.91524 2.4153C1.79624 2.5343 1.79624 2.72665 1.91524 2.84565L3.437 4.36741C3.49635 4.42676 3.57426 4.45658 3.65217 4.45658C3.73009 4.45658 3.808 4.42676 3.86735 4.36741C3.98635 4.24841 3.98635 4.05606 3.86735 3.93705Z" fill="#459AFE"/>
<path d="M3.86735 10.6329C3.74835 10.5139 3.556 10.5139 3.437 10.6329L1.91524 12.1547C1.79624 12.2737 1.79624 12.466 1.91524 12.585C1.97459 12.6444 2.0525 12.6742 2.13042 12.6742C2.20833 12.6742 2.28624 12.6444 2.34559 12.585L3.86735 11.0633C3.98635 10.9443 3.98635 10.7519 3.86735 10.6329Z" fill="#459AFE"/>
<path d="M12.0847 2.4153C11.9657 2.29629 11.7734 2.29629 11.6544 2.4153L10.1326 3.93705C10.0136 4.05606 10.0136 4.24841 10.1326 4.36741C10.192 4.42676 10.2699 4.45658 10.3478 4.45658C10.4257 4.45658 10.5036 4.42676 10.563 4.36741L12.0847 2.84565C12.2037 2.72665 12.2037 2.5343 12.0847 2.4153Z" fill="#459AFE"/>
<path d="M7.00005 4.15231C5.15418 4.15231 3.65222 5.65426 3.65222 7.50013C3.65222 9.346 5.15418 10.848 7.00005 10.848C8.84592 10.848 10.3479 9.346 10.3479 7.50013C10.3479 5.65426 8.84592 4.15231 7.00005 4.15231ZM7.00005 10.2393C5.48987 10.2393 4.26092 9.01031 4.26092 7.50013C4.26092 5.98996 5.48987 4.761 7.00005 4.761C8.51022 4.761 9.73918 5.98996 9.73918 7.50013C9.73918 9.01031 8.51022 10.2393 7.00005 10.2393Z" fill="#459AFE"/>
</g>
<defs>
<clipPath id="clip0">
<rect width="14" height="14" fill="white" transform="translate(0 0.5)"/>
</clipPath>
</defs>
</svg>
