<svg width="14" height="15" viewBox="0 0 14 15" fill="none" xmlns="http://www.w3.org/2000/svg">
<g clip-path="url(#clip0)">
<path d="M13.6957 7.19565H11.5497C11.4812 6.16604 11.0722 5.23048 10.4315 4.49883L12.0847 2.84561C12.2037 2.72661 12.2037 2.53426 12.0847 2.41526C11.9657 2.29626 11.7734 2.29626 11.6544 2.41526L10.0012 4.06848C9.26952 3.42783 8.33396 3.01878 7.30435 2.9503V0.804348C7.30435 0.636348 7.1683 0.5 7 0.5C6.8317 0.5 6.69565 0.636348 6.69565 0.804348V2.9503C5.66604 3.01878 4.73048 3.42783 3.99883 4.06848L2.34561 2.41526C2.22661 2.29626 2.03426 2.29626 1.91526 2.41526C1.79626 2.53426 1.79626 2.72661 1.91526 2.84561L3.56848 4.49883C2.92783 5.23048 2.51878 6.16604 2.4503 7.19565H0.304348C0.136043 7.19565 0 7.332 0 7.5C0 7.668 0.136043 7.80435 0.304348 7.80435H2.73852C2.73883 7.80435 2.73913 7.80435 2.73913 7.80435H2.73974H11.26C11.2603 7.80435 11.2606 7.80435 11.2606 7.80435H11.2612H13.6957C13.864 7.80435 14 7.668 14 7.5C14 7.332 13.864 7.19565 13.6957 7.19565ZM3.059 7.19565C3.21543 5.15591 4.9213 3.54348 7 3.54348C9.0787 3.54348 10.7846 5.15591 10.941 7.19565H3.059Z" fill="#459AFE"/>
<path d="M9.04125 12.1544C8.92225 12.0354 8.7299 12.0354 8.6109 12.1544L7.30434 13.461V9.32609C7.30434 9.15809 7.16829 9.02174 6.99999 9.02174C6.83168 9.02174 6.69564 9.15809 6.69564 9.32609V13.461L5.38907 12.1544C5.27007 12.0354 5.07773 12.0354 4.95873 12.1544C4.83973 12.2734 4.83973 12.4657 4.95873 12.5847L6.78451 14.4105C6.81251 14.4388 6.84629 14.461 6.88373 14.4766C6.92086 14.4918 6.96042 14.5 6.99999 14.5C7.03955 14.5 7.07912 14.4918 7.11625 14.4766C7.15368 14.461 7.18716 14.4388 7.21547 14.4105L9.04125 12.5847C9.16025 12.4657 9.16025 12.2734 9.04125 12.1544Z" fill="#459AFE"/>
</g>
<defs>
<clipPath id="clip0">
<rect width="14" height="14" fill="white" transform="translate(0 0.5)"/>
</clipPath>
</defs>
</svg>
