<svg width="14" height="15" viewBox="0 0 14 15" fill="none" xmlns="http://www.w3.org/2000/svg">
<g clip-path="url(#clip0)">
<path d="M7.30465 1.725L7.30435 0.804348C7.30435 0.636348 7.168 0.5 7 0.5C6.832 0.5 6.69565 0.636348 6.69565 0.804348V1.725C2.97652 1.88509 0 4.95961 0 8.71739C0 8.88539 0.136348 9.02174 0.304348 9.02174C0.995826 9.02174 1.35557 8.62943 1.64409 8.31413C1.90522 8.02956 2.11126 7.80435 2.53491 7.80435C2.95887 7.80435 3.16491 8.02926 3.42604 8.31413C3.66252 8.57222 3.94952 8.87809 4.4237 8.98217C4.46661 9.0053 4.51348 9.02174 4.56522 9.02174C4.58378 9.02174 4.59961 9.01443 4.61726 9.01139C4.66626 9.01565 4.71343 9.02174 4.76639 9.02174C5.45817 9.02174 5.81791 8.62943 6.10674 8.31443C6.29635 8.10748 6.45796 7.9337 6.69413 7.85304V12.9783C6.69413 12.9901 6.69474 13.002 6.69626 13.0136C6.71483 13.8362 7.39017 14.5 8.21739 14.5C9.05648 14.5 9.73913 13.8173 9.73913 12.9783C9.73913 12.8103 9.60309 12.6739 9.43478 12.6739C9.26648 12.6739 9.13043 12.8103 9.13043 12.9783C9.13043 13.4817 8.72078 13.8913 8.21739 13.8913C7.714 13.8913 7.30435 13.4817 7.30435 12.9783C7.30435 12.9676 7.30404 12.957 7.30283 12.9466V7.85304C7.5387 7.9337 7.7003 8.10748 7.88961 8.31413C8.17843 8.62943 8.53787 9.02174 9.22965 9.02174C9.28352 9.02174 9.33191 9.01535 9.38183 9.01078C9.39948 9.01443 9.41591 9.02174 9.43478 9.02174C9.48774 9.02174 9.53491 9.00469 9.57843 8.98096C10.0493 8.87565 10.335 8.5713 10.5706 8.31474C10.8317 8.02956 11.0384 7.80435 11.463 7.80435C11.8875 7.80435 12.0936 8.02956 12.355 8.31443C12.6441 8.62974 13.0039 9.02174 13.6957 9.02174C13.864 9.02174 14 8.88539 14 8.71739C14 4.95991 11.0238 1.88539 7.30465 1.725ZM4.26635 8.26878C4.12635 8.17687 4.00765 8.04813 3.87496 7.90326C3.58613 7.58796 3.2267 7.19565 2.53491 7.19565C1.84313 7.19565 1.484 7.58796 1.19517 7.90296C1.008 8.10717 0.84913 8.28065 0.61813 8.36252C0.785826 5.31052 3.10678 2.82978 6.08239 2.39913C5.34709 3.21265 4.34883 4.92522 4.26635 8.26878ZM8.33822 7.90326C8.04939 7.58796 7.69026 7.19565 6.99848 7.19565C6.3067 7.19565 5.94696 7.58796 5.65783 7.90296C5.42104 8.16165 5.22717 8.36891 4.87687 8.40543C4.95357 4.21852 6.52217 2.73604 7 2.38391C7.47996 2.73787 9.04674 4.22126 9.12313 8.40574C8.77039 8.37043 8.57591 8.16257 8.33822 7.90326ZM12.8036 7.90326C12.5145 7.58796 12.155 7.19565 11.463 7.19565C10.7706 7.19565 10.4108 7.58796 10.1217 7.90296C9.99022 8.04661 9.87213 8.17474 9.73365 8.26665C9.65087 4.92461 8.65291 3.21265 7.91761 2.39913C10.8929 2.82978 13.2139 5.31083 13.3816 8.36252C13.1503 8.28096 12.9911 8.10748 12.8036 7.90326Z" fill="#459AFE"/>
</g>
<defs>
<clipPath id="clip0">
<rect width="14" height="14" fill="white" transform="translate(0 0.5)"/>
</clipPath>
</defs>
</svg>
