<svg width="16" height="16" viewBox="0 0 16 16" fill="none" xmlns="http://www.w3.org/2000/svg">
<path d="M13.1148 4.87896C12.6289 2.47409 10.4803 0.695652 8 0.695652C5.5193 0.695652 3.37113 2.47409 2.88522 4.87896C1.27339 5.00452 0 6.35617 0 8C0 9.72591 1.40452 11.1304 3.13043 11.1304H10.7826C10.975 11.1304 11.1304 10.9746 11.1304 10.7826C11.1304 10.5906 10.975 10.4348 10.7826 10.4348H3.13043C1.78783 10.4348 0.695652 9.34261 0.695652 8C0.695652 6.65739 1.78783 5.56522 3.11304 5.56209C3.20626 5.58087 3.3033 5.5593 3.38122 5.504C3.45878 5.4487 3.51026 5.36417 3.52383 5.26991C3.8393 3.05878 5.76383 1.3913 8 1.3913C10.2362 1.3913 12.1607 3.05878 12.4765 5.26991C12.4901 5.36417 12.5325 5.45078 12.6104 5.50574C12.688 5.56104 12.776 5.584 12.8696 5.56522C14.2118 5.56522 15.3043 6.65739 15.3043 8C15.3043 8.192 15.4598 8.34783 15.6522 8.34783C15.8445 8.34783 16 8.192 16 8C16 6.35652 14.727 5.00487 13.1148 4.87896Z" fill="#459AFE"/>
<path d="M13.5652 8.34783H5.21739C5.02539 8.34783 4.86957 8.50365 4.86957 8.69565C4.86957 8.88765 5.02539 9.04348 5.21739 9.04348H13.5652C13.7576 9.04348 13.913 8.88765 13.913 8.69565C13.913 8.50365 13.7576 8.34783 13.5652 8.34783Z" fill="#459AFE"/>
<path d="M15.6522 10.4348H12.8696C12.6772 10.4348 12.5217 10.5906 12.5217 10.7826C12.5217 10.9746 12.6772 11.1304 12.8696 11.1304H15.6522C15.8445 11.1304 16 10.9746 16 10.7826C16 10.5906 15.8445 10.4348 15.6522 10.4348Z" fill="#459AFE"/>
<path d="M15.6522 12.5217H5.21739C5.02539 12.5217 4.86957 12.6776 4.86957 12.8696C4.86957 13.0616 5.02539 13.2174 5.21739 13.2174H15.6522C15.8445 13.2174 16 13.0616 16 12.8696C16 12.6776 15.8445 12.5217 15.6522 12.5217Z" fill="#459AFE"/>
<path d="M13.5652 14.6087H1.04347C0.851474 14.6087 0.695648 14.7645 0.695648 14.9565C0.695648 15.1485 0.851474 15.3043 1.04347 15.3043H13.5652C13.7576 15.3043 13.913 15.1485 13.913 14.9565C13.913 14.7645 13.7576 14.6087 13.5652 14.6087Z" fill="#459AFE"/>
<path d="M3.13043 12.5217H0.347826C0.155826 12.5217 0 12.6776 0 12.8696C0 13.0616 0.155826 13.2174 0.347826 13.2174H3.13043C3.32243 13.2174 3.47826 13.0616 3.47826 12.8696C3.47826 12.6776 3.32243 12.5217 3.13043 12.5217Z" fill="#459AFE"/>
</svg>
